<svg width="20%" height="20%" viewBox="0 -1.5 21 21" xmlns="http://www.w3.org/2000/svg" xmlns:svg="http://www.w3.org/2000/svg">
            <defs>
                <clipPath id="danmu-animation-mask">
                    <rect transform="rotate(-35.42460250854492 5.2586154937744185,15.743067741394041) " height="32.03465" width="14.62944" y="-0.27426" x="-2.0561" />
                    <rect transform="rotate(-35.42460250854492 19.095224380493168,5.730149269104002) " height="32.03465" width="14.62944" y="-10.28718" x="11.78051" />
                    <rect class="danmu-animation-mover" x="10.88679" y="-6.14148" width="3.18063" height="34.26939" transform="rotate(-35.42460250854492,12.477108955383303,10.993218421936033) translate(0,30) " />
                </clipPath>
            </defs>
            <path clip-path="url(#danmu-animation-mask)" fill-rule="evenodd" fill="#060001" d="m14,9.5l-8,0c-0.553,0 -1,0.447 -1,1s0.447,1 1,1l8,0c0.553,0 1,-0.447 1,-1s-0.447,-1 -1,-1zm0,-4c-0.553,0 -1,0.447 -1,1s0.447,1 1,1s1,-0.447 1,-1s-0.447,-1 -1,-1zm4,-5l-16,0c-1.104,0 -2,0.896 -2,2l0,12c0,1.104 0.896,2 2,2l2,0l0,2l1,1l2,0l4.2,-3l6.8,0c1.104,0 2,-0.896 2,-2l0,-12c0,-1.104 -0.896,-2 -2,-2zm0,13c0,0.553 -0.447,1 -1,1l-7,0l-4,3l0,-2l-1,-1l-2,0c-0.553,0 -1,-0.447 -1,-1l0,-10c0,-0.553 0.447,-1 1,-1l14,0c0.553,0 1,0.447 1,1l0,10zm-12,-6l4,0c0.553,0 1,-0.447 1,-1s-0.447,-1 -1,-1l-4,0c-0.553,0 -1,0.447 -1,1s0.447,1 1,1z" />
            <path class="danmu-animation-line" d="m6.20732,0.315l12.64368,17.694c0.48012,0.57515 1.09929,0.73742 1.658,0.262c0.48012,-0.32762 0.6989,-1.01162 0.262,-1.649l-12.673,-17.65c-0.37484,-0.43556 -0.84533,-0.58696 -1.47565,-0.19229c-0.63032,0.39466 -0.81804,0.84686 -0.38335,1.53529" id="svg_1" fill="black" />
        </svg>
