<svg version="1.1" xmlns="http://www.w3.org/2000/svg" xmlns:xlink="http://www.w3.org/1999/xlink" x="0px" y="0px"
	 width="18px" height="18px" viewBox="0 0 18 18" enable-background="new 0 0 18 18" xml:space="preserve">
<path d="M10,17H8H2c-1.104,0-2-0.896-2-2V7V5V2l5,5H2v4v2v1c0,0.552,0.447,1,1,1h1h2h2.5H10h0.5c0.275,0,0.5,0.225,0.5,0.5
	s0,0.5,0,0.5v1H10z"/>
<path d="M8,1h2h6c1.104,0,2,0.896,2,2v8v2v3l-5-5h3V7V5V4c0-0.553-0.447-1-1-1h-1h-2H9.5H8H7.5C7.224,3,7,2.776,7,2.5S7,2,7,2V1H8z"
	/>
</svg>
