<svg version="1.1" xmlns="http://www.w3.org/2000/svg" xmlns:xlink="http://www.w3.org/1999/xlink" x="0px" y="0px"
	 width="18px" height="18px" viewBox="0 0 18 18" enable-background="new 0 0 18 18" xml:space="preserve">
            <path d="m0,3l12,12c0.74561,0.64211 1.49123,0.53684 2,0c0.49123,-0.57018 0.49123,-1.44561 0,-2l-12.10406,-12.06897c-0.57718,-0.40929 -1.19068,-0.09594 -1.58015,0.38476c-0.49123,0.61053 -0.70175,1.17664 -0.03509,1.96491"/>
            <path stroke="none" d="M0,7C0,6.6 0.5,6 1,6 L9,14 L9,12L3,6L3,6L9,1L9,17L3,12L0,12"></path>
            <path d="m11,9c0,0 0,0 0,0c0,0 0,0 0,0z"></path>
            <path d="M11,2C14,3.5 16,6 16,9C16,12 14,15 11,16L11,16C14,15 16,12 16,9C16,6 14,3.5 11,2"></path>
</svg>
